<?xml version="1.0" standalone="no"?><svg xmlns="http://www.w3.org/2000/svg" viewBox="0 0 1440 320"><path fill="#27709b" fill-opacity="0.9" d="M0,96L34.3,90.7C68.6,85,137,75,206,101.3C274.3,128,343,192,411,192C480,192,549,128,617,90.7C685.7,53,754,43,823,53.3C891.4,64,960,96,1029,101.3C1097.1,107,1166,85,1234,74.7C1302.9,64,1371,64,1406,64L1440,64L1440,320L1405.7,320C1371.4,320,1303,320,1234,320C1165.7,320,1097,320,1029,320C960,320,891,320,823,320C754.3,320,686,320,617,320C548.6,320,480,320,411,320C342.9,320,274,320,206,320C137.1,320,69,320,34,320L0,320Z"></path></svg>